<?xml version="1.0" standalone="no"?>
<!DOCTYPE svg PUBLIC "-//W3C//DTD SVG 20010904//EN"
 "http://www.w3.org/TR/2001/REC-SVG-20010904/DTD/svg10.dtd">
<svg version="1.0" xmlns="http://www.w3.org/2000/svg"
 width="1024.000000pt" height="1024.000000pt" viewBox="0 0 1024.000000 1024.000000"
 preserveAspectRatio="xMidYMid meet">

<g transform="translate(0.000000,1024.000000) scale(0.100000,-0.100000)"
fill="currentColor" stroke="none">
<path d="M4685 7420 c-1313 -89 -2486 -474 -3206 -1052 -348 -279 -606 -617
-724 -948 -139 -390 -74 -820 176 -1175 81 -115 275 -310 402 -404 263 -196
601 -369 997 -511 445 -158 1063 -286 1710 -352 175 -18 1148 -18 1320 0 669
70 1188 169 1682 320 104 31 188 60 188 64 0 10 -75 48 -96 48 -9 0 -84 -20
-166 -45 -720 -217 -1568 -328 -2363 -311 -1678 37 -3120 570 -3649 1349 -95
140 -197 385 -195 467 0 14 9 -8 20 -49 67 -248 199 -462 412 -667 187 -181
399 -326 692 -474 404 -205 824 -342 1388 -454 405 -81 687 -114 1172 -137
820 -39 1739 72 2518 303 l138 41 -38 21 c-47 27 -100 96 -109 142 -13 68 51
156 208 287 60 50 75 79 63 124 -10 41 -74 98 -140 123 -53 21 -80 24 -245 28
-116 2 -259 -2 -382 -12 -226 -18 -462 -20 -593 -6 -122 14 -128 16 -120 47 9
39 43 370 56 568 9 118 13 424 14 885 l0 705 -27 135 c-29 144 -28 153 23 143
15 -3 30 0 33 6 17 27 703 -6 1116 -54 223 -26 301 -16 356 46 48 53 42 80
-38 168 -95 104 -131 226 -90 301 10 19 29 39 40 45 12 5 22 13 22 16 0 9
-416 111 -585 143 -271 52 -525 86 -830 111 -223 19 -954 28 -1150 15z m1100
-1001 c5 -42 4 -41 -10 11 -17 65 -17 70 -5 49 5 -9 12 -36 15 -60z m-2476
-529 c40 -11 90 -29 111 -40 38 -19 58 -46 39 -52 -6 -2 -20 -48 -31 -103 -20
-104 -37 -152 -52 -147 -4 2 -21 -8 -36 -23 -28 -27 -28 -27 -39 -6 -17 31
-27 156 -13 147 8 -5 12 0 12 13 0 11 -4 23 -10 26 -5 3 -10 1 -10 -6 0 -6
-11 0 -25 15 -44 48 -109 70 -221 74 -81 3 -116 0 -180 -18 -145 -39 -221 -82
-272 -154 -39 -54 -94 -165 -117 -235 -10 -32 -20 -49 -25 -41 -10 16 -29 -89
-40 -223 -28 -333 48 -504 258 -579 77 -28 182 -28 295 0 89 22 252 97 333
153 50 34 60 36 67 10 13 -51 -103 -149 -279 -236 -154 -77 -247 -99 -388 -93
-132 6 -195 26 -296 93 -178 118 -269 297 -270 528 0 117 22 213 76 322 40 83
94 165 80 123 -9 -31 0 -20 39 44 52 83 160 195 248 256 93 64 262 149 335
167 83 21 313 13 411 -15z m1091 -30 c0 -10 6 -20 14 -23 7 -3 16 -22 18 -41
4 -35 -5 -48 -16 -23 -3 6 -4 -1 -1 -18 12 -62 80 -257 167 -474 79 -199 103
-253 144 -323 10 -16 28 7 141 179 134 202 277 433 307 490 9 18 28 65 42 105
36 100 41 104 123 106 38 1 113 14 168 28 122 33 169 39 178 24 11 -18 -21
-56 -69 -79 -125 -61 -168 -125 -186 -276 -6 -49 -13 -265 -16 -480 -5 -365
-4 -392 13 -425 25 -48 103 -79 201 -80 50 0 78 -5 88 -14 18 -19 18 -36 -1
-36 -9 0 -33 -11 -54 -24 -85 -54 -103 -57 -242 -45 -93 8 -145 8 -191 0 -75
-13 -113 -6 -102 18 26 59 43 122 44 157 0 23 6 75 14 115 9 46 17 173 20 334
3 143 8 292 11 330 4 48 2 64 -4 50 -5 -11 -10 -33 -11 -50 -2 -29 -2 -29 -9
-5 -6 22 -11 18 -66 -59 -130 -180 -187 -269 -216 -341 -29 -69 -108 -225
-167 -329 -15 -28 -27 -39 -32 -32 -5 8 -12 4 -23 -12 -24 -36 -66 -81 -72
-75 -12 11 -278 742 -289 793 l-6 30 16 -25 c17 -27 16 -25 -11 63 -16 51 -35
76 -35 46 0 -8 -4 -8 -14 0 -12 10 -16 3 -26 -43 -6 -31 -9 -60 -5 -65 3 -6 3
-22 -1 -36 -4 -17 -9 -23 -14 -15 -9 14 -30 -61 -110 -400 -34 -140 -67 -277
-75 -304 -16 -54 -15 -60 18 -61 29 -1 117 -35 117 -46 0 -14 -37 -29 -72 -29
-19 0 -38 -4 -44 -9 -5 -6 -44 -7 -99 -2 -59 6 -127 5 -195 -3 l-105 -12 -15
27 c-8 14 -21 24 -27 22 -20 -7 -15 22 7 42 10 9 54 24 96 32 105 20 137 38
179 103 19 30 35 48 35 40 1 -45 23 38 65 250 47 233 63 297 64 256 1 -11 3
-17 5 -15 8 8 126 543 121 548 -3 3 -15 6 -28 9 -156 26 -265 -7 -402 -123
-106 -90 -138 -211 -82 -307 55 -94 26 -175 -66 -185 -47 -6 -47 -5 -64 33
-12 28 -18 73 -20 155 -2 114 -2 117 33 189 68 142 223 265 444 352 98 38 114
41 235 47 133 6 155 2 155 -29z"/>
<path d="M8153 6862 c-34 -75 -75 -124 -143 -168 -54 -34 -70 -50 -70 -68 0
-16 8 -26 23 -32 12 -4 183 -9 381 -11 275 -3 357 -2 354 8 -7 20 -217 146
-374 224 -83 41 -153 75 -155 75 -2 0 -10 -13 -16 -28z"/>
<path d="M9132 6074 c3 -137 1 -153 -19 -196 -13 -26 -23 -57 -23 -70 -1 -67
-84 -167 -157 -187 -54 -15 -141 -13 -200 4 -28 8 -87 41 -130 72 -127 91
-190 117 -304 121 -154 7 -249 -29 -362 -137 -205 -195 -204 -511 2 -704 96
-89 193 -122 344 -115 121 6 168 22 305 105 l96 58 85 0 c64 0 95 -5 121 -19
48 -25 98 -74 121 -118 45 -88 61 -250 38 -386 -16 -90 -3 -95 59 -27 95 104
238 356 290 510 136 404 73 782 -190 1133 l-78 105 2 -149z"/>
<path d="M6565 5951 c-128 -21 -243 -66 -276 -108 -13 -17 -13 -17 6 -3 20 15
20 14 1 -8 -20 -23 -32 -30 -21 -12 10 17 -12 11 -26 -7 -12 -14 -12 -16 0 -8
10 5 12 4 7 -4 -4 -6 -11 -9 -16 -6 -16 10 -100 -87 -133 -154 -41 -84 -49
-177 -19 -243 28 -64 69 -106 218 -224 74 -58 134 -109 134 -113 0 -4 27 -39
60 -77 80 -92 131 -189 137 -264 5 -55 4 -59 -28 -94 -31 -33 -43 -39 -134
-57 -139 -29 -215 -24 -276 18 -46 32 -80 74 -84 102 -1 9 -11 39 -24 66 -12
28 -29 65 -37 83 -13 31 -16 32 -52 26 -60 -10 -79 -51 -89 -191 -5 -73 -3
-86 17 -120 28 -48 50 -63 132 -89 166 -53 315 -57 441 -11 104 38 224 114
304 194 41 40 68 63 62 52 -6 -11 -8 -23 -5 -26 2 -3 17 19 31 48 25 48 27 61
23 140 -3 74 -9 97 -37 153 -45 87 -112 168 -191 229 -61 48 -63 49 -30 12
l35 -38 -34 19 c-18 10 -63 47 -100 82 -72 69 -65 73 14 8 31 -26 14 -5 -44
54 -130 132 -191 231 -191 313 0 40 70 111 125 126 54 15 171 13 216 -3 62
-22 125 -90 155 -167 33 -83 56 -96 91 -53 13 16 29 36 37 44 17 19 28 139 18
210 l-7 55 -67 22 c-75 26 -256 38 -343 24z m231 -828 c23 -31 24 -34 5 -18
-22 19 -46 55 -38 55 3 0 17 -17 33 -37z"/>
<path d="M8061 4149 c-172 -16 -249 -52 -272 -129 -16 -54 -8 -75 64 -167 63
-80 97 -144 97 -184 0 -18 16 -12 138 52 75 40 187 102 247 137 184 109 412
267 398 275 -5 2 -107 7 -228 11 -121 4 -249 8 -285 10 -36 3 -107 0 -159 -5z"/>
</g>
</svg>